<svg width="24" height="24" viewBox="0 0 24 24" fill="none" xmlns="http://www.w3.org/2000/svg">
<path fill-rule="evenodd" clip-rule="evenodd" d="M16.5951 6.07826C16.5951 5.7941 16.708 5.52158 16.9089 5.32065C17.1099 5.11972 17.3824 5.00684 17.6665 5.00684H21.0665C21.3507 5.00684 21.6232 5.11972 21.8241 5.32065C22.0251 5.52158 22.138 5.7941 22.138 6.07826C22.138 6.36243 22.0251 6.63495 21.8241 6.83588C21.6232 7.03681 21.3507 7.14969 21.0665 7.14969H17.6665C17.3824 7.14969 17.1099 7.03681 16.9089 6.83588C16.708 6.63495 16.5951 6.36243 16.5951 6.07826ZM17.6665 10.5997C17.3824 10.5997 17.1099 10.7126 16.9089 10.9135C16.708 11.1144 16.5951 11.387 16.5951 11.6711C16.5951 11.9553 16.708 12.2278 16.9089 12.4287C17.1099 12.6297 17.3824 12.7426 17.6665 12.7426H21.0665C21.3507 12.7426 21.6232 12.6297 21.8241 12.4287C22.0251 12.2278 22.138 11.9553 22.138 11.6711C22.138 11.387 22.0251 11.1144 21.8241 10.9135C21.6232 10.7126 21.3507 10.5997 21.0665 10.5997H17.6665ZM17.6665 16.1926C17.3824 16.1926 17.1099 16.3054 16.9089 16.5064C16.708 16.7073 16.5951 16.9798 16.5951 17.264C16.5951 17.5481 16.708 17.8207 16.9089 18.0216C17.1099 18.2225 17.3824 18.3354 17.6665 18.3354H21.0665C21.3507 18.3354 21.6232 18.2225 21.8241 18.0216C22.0251 17.8207 22.138 17.5481 22.138 17.264C22.138 16.9798 22.0251 16.7073 21.8241 16.5064C21.6232 16.3054 21.3507 16.1926 21.0665 16.1926H17.6665ZM3.38939 16.1926C3.10523 16.1926 2.83271 16.3054 2.63178 16.5064C2.43084 16.7073 2.31796 16.9798 2.31796 17.264C2.31796 17.5481 2.43084 17.8207 2.63178 18.0216C2.83271 18.2225 3.10523 18.3354 3.38939 18.3354H6.78939C7.07355 18.3354 7.34607 18.2225 7.54701 18.0216C7.74794 17.8207 7.86082 17.5481 7.86082 17.264C7.86082 16.9798 7.74794 16.7073 7.54701 16.5064C7.34607 16.3054 7.07355 16.1926 6.78939 16.1926H3.38939ZM2.31796 11.6711C2.31796 11.387 2.43084 11.1144 2.63178 10.9135C2.83271 10.7126 3.10523 10.5997 3.38939 10.5997H6.78939C7.07355 10.5997 7.34607 10.7126 7.54701 10.9135C7.74794 11.1144 7.86082 11.387 7.86082 11.6711C7.86082 11.9553 7.74794 12.2278 7.54701 12.4287C7.34607 12.6297 7.07355 12.7426 6.78939 12.7426H3.38939C3.10523 12.7426 2.83271 12.6297 2.63178 12.4287C2.43084 12.2278 2.31796 11.9553 2.31796 11.6711ZM3.38939 5.00684C3.10523 5.00684 2.83271 5.11972 2.63178 5.32065C2.43084 5.52158 2.31796 5.7941 2.31796 6.07826C2.31796 6.36243 2.43084 6.63495 2.63178 6.83588C2.83271 7.03681 3.10523 7.14969 3.38939 7.14969H6.78939C7.07355 7.14969 7.34607 7.03681 7.54701 6.83588C7.74794 6.63495 7.86082 6.36243 7.86082 6.07826C7.86082 5.7941 7.74794 5.52158 7.54701 5.32065C7.34607 5.11972 7.07355 5.00684 6.78939 5.00684H3.38939Z" fill="#929EAE"/>
<path fill-rule="evenodd" clip-rule="evenodd" d="M7.94227 1.67114C7.37394 1.67114 6.8289 1.89691 6.42704 2.29877C6.02517 2.70063 5.79941 3.24568 5.79941 3.814V19.5283C5.79941 20.0966 6.02517 20.6417 6.42704 21.0435C6.8289 21.4454 7.37394 21.6711 7.94227 21.6711H16.5137C17.082 21.6711 17.6271 21.4454 18.0289 21.0435C18.4308 20.6417 18.6566 20.0966 18.6566 19.5283V3.814C18.6566 3.24568 18.4308 2.70063 18.0289 2.29877C17.6271 1.89691 17.082 1.67114 16.5137 1.67114L7.94227 1.67114Z" fill="#F2F2F2"/>
<path fill-rule="evenodd" clip-rule="evenodd" d="M11.8322 18.5383C11.8322 18.0454 12.2322 17.6454 12.7251 17.6454H15.5822C15.819 17.6454 16.0461 17.7395 16.2136 17.9069C16.381 18.0744 16.4751 18.3015 16.4751 18.5383C16.4751 18.7751 16.381 19.0022 16.2136 19.1696C16.0461 19.3371 15.819 19.4311 15.5822 19.4311H12.7251C12.4883 19.4311 12.2612 19.3371 12.0937 19.1696C11.9263 19.0022 11.8322 18.7751 11.8322 18.5383Z" fill="#929EAE"/>
</svg>
