<svg width="24" height="24" viewBox="0 0 24 24" fill="none" xmlns="http://www.w3.org/2000/svg">
<path fill-rule="evenodd" clip-rule="evenodd" d="M10.3462 3.08806C10.3462 2.79949 10.2315 2.52274 10.0275 2.31869C9.82344 2.11463 9.54669 2 9.25812 2C8.96955 2 8.6928 2.11463 8.48874 2.31869C8.28469 2.52274 8.17006 2.79949 8.17006 3.08806V6.51618C8.17006 6.80475 8.28469 7.0815 8.48874 7.28555C8.6928 7.4896 8.96955 7.60424 9.25812 7.60424C9.54669 7.60424 9.82344 7.4896 10.0275 7.28555C10.2315 7.0815 10.3462 6.80475 10.3462 6.51618V3.08806ZM15.83 3.08806C15.83 2.79949 15.7154 2.52274 15.5113 2.31869C15.3073 2.11463 15.0305 2 14.7419 2C14.4534 2 14.1766 2.11463 13.9726 2.31869C13.7685 2.52274 13.6539 2.79949 13.6539 3.08806V6.51618C13.6539 6.80475 13.7685 7.0815 13.9726 7.28555C14.1766 7.4896 14.4534 7.60424 14.7419 7.60424C15.0305 7.60424 15.3073 7.4896 15.5113 7.28555C15.7154 7.0815 15.83 6.80475 15.83 6.51618V3.08806ZM2.00003 14.7419C2.00003 14.4533 2.11467 14.1766 2.31872 13.9725C2.52277 13.7685 2.79952 13.6539 3.08809 13.6539H6.51621C6.80478 13.6539 7.08153 13.7685 7.28558 13.9725C7.48963 14.1766 7.60427 14.4533 7.60427 14.7419C7.60427 15.0305 7.48963 15.3072 7.28558 15.5113C7.08153 15.7153 6.80478 15.83 6.51621 15.83H3.08809C2.79952 15.83 2.52277 15.7153 2.31872 15.5113C2.11467 15.3072 2.00003 15.0305 2.00003 14.7419ZM3.08809 8.17003C2.79952 8.17003 2.52277 8.28466 2.31872 8.48871C2.11467 8.69276 2.00003 8.96952 2.00003 9.25809C2.00003 9.54666 2.11467 9.82341 2.31872 10.0275C2.52277 10.2315 2.79952 10.3461 3.08809 10.3461H6.51621C6.80478 10.3461 7.08153 10.2315 7.28558 10.0275C7.48963 9.82341 7.60427 9.54666 7.60427 9.25809C7.60427 8.96952 7.48963 8.69276 7.28558 8.48871C7.08153 8.28466 6.80478 8.17003 6.51621 8.17003H3.08809ZM14.7419 16.3958C15.0305 16.3958 15.3073 16.5104 15.5113 16.7144C15.7154 16.9185 15.83 17.1953 15.83 17.4838V20.9119C15.83 21.2005 15.7154 21.4773 15.5113 21.6813C15.3073 21.8854 15.0305 22 14.7419 22C14.4534 22 14.1766 21.8854 13.9726 21.6813C13.7685 21.4773 13.6539 21.2005 13.6539 20.9119V17.4838C13.6539 17.1953 13.7685 16.9185 13.9726 16.7144C14.1766 16.5104 14.4534 16.3958 14.7419 16.3958ZM10.3462 17.4838C10.3462 17.1953 10.2315 16.9185 10.0275 16.7144C9.82344 16.5104 9.54669 16.3958 9.25812 16.3958C8.96955 16.3958 8.6928 16.5104 8.48874 16.7144C8.28469 16.9185 8.17006 17.1953 8.17006 17.4838V20.9119C8.17006 21.2005 8.28469 21.4773 8.48874 21.6813C8.6928 21.8854 8.96955 22 9.25812 22C9.54669 22 9.82344 21.8854 10.0275 21.6813C10.2315 21.4773 10.3462 21.2005 10.3462 20.9119V17.4838ZM16.3958 9.25809C16.3958 8.96952 16.5104 8.69276 16.7145 8.48871C16.9185 8.28466 17.1953 8.17003 17.4839 8.17003H20.912C21.2005 8.17003 21.4773 8.28466 21.6813 8.48871C21.8854 8.69276 22 8.96952 22 9.25809C22 9.54666 21.8854 9.82341 21.6813 10.0275C21.4773 10.2315 21.2005 10.3461 20.912 10.3461H17.4839C17.1953 10.3461 16.9185 10.2315 16.7145 10.0275C16.5104 9.82341 16.3958 9.54666 16.3958 9.25809ZM17.4839 13.6539C17.1953 13.6539 16.9185 13.7685 16.7145 13.9725C16.5104 14.1766 16.3958 14.4533 16.3958 14.7419C16.3958 15.0305 16.5104 15.3072 16.7145 15.5113C16.9185 15.7153 17.1953 15.83 17.4839 15.83H20.912C21.2005 15.83 21.4773 15.7153 21.6813 15.5113C21.8854 15.3072 22 15.0305 22 14.7419C22 14.4533 21.8854 14.1766 21.6813 13.9725C21.4773 13.7685 21.2005 13.6539 20.912 13.6539H17.4839Z" fill="#929EAE"/>
<path fill-rule="evenodd" clip-rule="evenodd" d="M7.6478 5.47162C7.07066 5.47162 6.51715 5.70089 6.10905 6.10899C5.70095 6.51709 5.47168 7.0706 5.47168 7.64774V16.3522C5.47168 16.9294 5.70095 17.4829 6.10905 17.891C6.51715 18.2991 7.07066 18.5283 7.6478 18.5283H16.3523C16.9294 18.5283 17.4829 18.2991 17.891 17.891C18.2991 17.4829 18.5284 16.9294 18.5284 16.3522V7.64774C18.5284 7.0706 18.2991 6.51709 17.891 6.10899C17.4829 5.70089 16.9294 5.47162 16.3523 5.47162H7.6478Z" fill="#F2F2F2"/>
<path fill-rule="evenodd" clip-rule="evenodd" d="M11.6867 14.9015C11.6867 14.401 12.0929 13.9948 12.5934 13.9948H15.4949C15.7354 13.9948 15.966 14.0903 16.136 14.2604C16.3061 14.4304 16.4016 14.661 16.4016 14.9015C16.4016 15.142 16.3061 15.3726 16.136 15.5426C15.966 15.7127 15.7354 15.8082 15.4949 15.8082H12.5934C12.3529 15.8082 12.1223 15.7127 11.9522 15.5426C11.7822 15.3726 11.6867 15.142 11.6867 14.9015Z" fill="#929EAE"/>
</svg>
