<svg width="24" height="24" viewBox="0 0 24 24" fill="none" xmlns="http://www.w3.org/2000/svg">
<path fill-rule="evenodd" clip-rule="evenodd" d="M16.5951 6.07831C16.5951 5.79415 16.708 5.52163 16.9089 5.3207C17.1099 5.11977 17.3824 5.00688 17.6665 5.00688H21.0665C21.3507 5.00688 21.6232 5.11977 21.8241 5.3207C22.0251 5.52163 22.138 5.79415 22.138 6.07831C22.138 6.36247 22.0251 6.63499 21.8241 6.83593C21.6232 7.03686 21.3507 7.14974 21.0665 7.14974H17.6665C17.3824 7.14974 17.1099 7.03686 16.9089 6.83593C16.708 6.63499 16.5951 6.36247 16.5951 6.07831ZM17.6665 10.5997C17.3824 10.5997 17.1099 10.7126 16.9089 10.9136C16.708 11.1145 16.5951 11.387 16.5951 11.6712C16.5951 11.9553 16.708 12.2279 16.9089 12.4288C17.1099 12.6297 17.3824 12.7426 17.6665 12.7426H21.0665C21.3507 12.7426 21.6232 12.6297 21.8241 12.4288C22.0251 12.2279 22.138 11.9553 22.138 11.6712C22.138 11.387 22.0251 11.1145 21.8241 10.9136C21.6232 10.7126 21.3507 10.5997 21.0665 10.5997H17.6665ZM17.6665 16.1926C17.3824 16.1926 17.1099 16.3055 16.9089 16.5064C16.708 16.7073 16.5951 16.9799 16.5951 17.264C16.5951 17.5482 16.708 17.8207 16.9089 18.0216C17.1099 18.2226 17.3824 18.3355 17.6665 18.3355H21.0665C21.3507 18.3355 21.6232 18.2226 21.8241 18.0216C22.0251 17.8207 22.138 17.5482 22.138 17.264C22.138 16.9799 22.0251 16.7073 21.8241 16.5064C21.6232 16.3055 21.3507 16.1926 21.0665 16.1926H17.6665ZM3.38939 16.1926C3.10523 16.1926 2.83271 16.3055 2.63178 16.5064C2.43084 16.7073 2.31796 16.9799 2.31796 17.264C2.31796 17.5482 2.43084 17.8207 2.63178 18.0216C2.83271 18.2226 3.10523 18.3355 3.38939 18.3355H6.78939C7.07355 18.3355 7.34607 18.2226 7.54701 18.0216C7.74794 17.8207 7.86082 17.5482 7.86082 17.264C7.86082 16.9799 7.74794 16.7073 7.54701 16.5064C7.34607 16.3055 7.07355 16.1926 6.78939 16.1926H3.38939ZM2.31796 11.6712C2.31796 11.387 2.43084 11.1145 2.63178 10.9136C2.83271 10.7126 3.10523 10.5997 3.38939 10.5997H6.78939C7.07355 10.5997 7.34607 10.7126 7.54701 10.9136C7.74794 11.1145 7.86082 11.387 7.86082 11.6712C7.86082 11.9553 7.74794 12.2279 7.54701 12.4288C7.34607 12.6297 7.07355 12.7426 6.78939 12.7426H3.38939C3.10523 12.7426 2.83271 12.6297 2.63178 12.4288C2.43084 12.2279 2.31796 11.9553 2.31796 11.6712ZM3.38939 5.00688C3.10523 5.00688 2.83271 5.11977 2.63178 5.3207C2.43084 5.52163 2.31796 5.79415 2.31796 6.07831C2.31796 6.36247 2.43084 6.63499 2.63178 6.83593C2.83271 7.03686 3.10523 7.14974 3.38939 7.14974H6.78939C7.07355 7.14974 7.34607 7.03686 7.54701 6.83593C7.74794 6.63499 7.86082 6.36247 7.86082 6.07831C7.86082 5.79415 7.74794 5.52163 7.54701 5.3207C7.34607 5.11977 7.07355 5.00688 6.78939 5.00688H3.38939Z" fill="#929EAE"/>
<path fill-rule="evenodd" clip-rule="evenodd" d="M7.94227 1.67117C7.37394 1.67117 6.8289 1.89694 6.42704 2.2988C6.02517 2.70067 5.79941 3.24571 5.79941 3.81403V19.5283C5.79941 20.0966 6.02517 20.6417 6.42704 21.0435C6.8289 21.4454 7.37394 21.6712 7.94227 21.6712H16.5137C17.082 21.6712 17.6271 21.4454 18.0289 21.0435C18.4308 20.6417 18.6566 20.0966 18.6566 19.5283V3.81403C18.6566 3.24571 18.4308 2.70067 18.0289 2.2988C17.6271 1.89694 17.082 1.67117 16.5137 1.67117L7.94227 1.67117Z" fill="white"/>
<path fill-rule="evenodd" clip-rule="evenodd" d="M11.8322 18.5383C11.8322 18.0455 12.2322 17.6455 12.7251 17.6455H15.5822C15.819 17.6455 16.0461 17.7395 16.2136 17.907C16.381 18.0744 16.4751 18.3015 16.4751 18.5383C16.4751 18.7751 16.381 19.0022 16.2136 19.1697C16.0461 19.3371 15.819 19.4312 15.5822 19.4312H12.7251C12.4883 19.4312 12.2612 19.3371 12.0937 19.1697C11.9263 19.0022 11.8322 18.7751 11.8322 18.5383Z" fill="#929EAE"/>
</svg>
