<svg width="24" height="24" viewBox="0 0 24 24" fill="none" xmlns="http://www.w3.org/2000/svg">
<path fill-rule="evenodd" clip-rule="evenodd" d="M3.42857 2C3.04969 2 2.68633 2.15051 2.41842 2.41842C2.15051 2.68633 2 3.04969 2 3.42857L2 12C2 12.3789 2.15051 12.7422 2.41842 13.0102C2.68633 13.2781 3.04969 13.4286 3.42857 13.4286H9.14286C9.52174 13.4286 9.8851 13.2781 10.153 13.0102C10.4209 12.7422 10.5714 12.3789 10.5714 12V3.42857C10.5714 3.04969 10.4209 2.68633 10.153 2.41842C9.8851 2.15051 9.52174 2 9.14286 2H3.42857ZM13.4286 12C13.4286 11.6211 13.5791 11.2578 13.847 10.9898C14.1149 10.7219 14.4783 10.5714 14.8571 10.5714H20.5714C20.9503 10.5714 21.3137 10.7219 21.5816 10.9898C21.8495 11.2578 22 11.6211 22 12V20.5714C22 20.9503 21.8495 21.3137 21.5816 21.5816C21.3137 21.8495 20.9503 22 20.5714 22H14.8571C14.4783 22 14.1149 21.8495 13.847 21.5816C13.5791 21.3137 13.4286 20.9503 13.4286 20.5714V12Z" fill="#929EAE"/>
<path fill-rule="evenodd" clip-rule="evenodd" d="M3.42857 2C3.04969 2 2.68633 2.15051 2.41842 2.41842C2.15051 2.68633 2 3.04969 2 3.42857L2 12C2 12.3789 2.15051 12.7422 2.41842 13.0102C2.68633 13.2781 3.04969 13.4286 3.42857 13.4286H9.14286C9.52174 13.4286 9.8851 13.2781 10.153 13.0102C10.4209 12.7422 10.5714 12.3789 10.5714 12V3.42857C10.5714 3.04969 10.4209 2.68633 10.153 2.41842C9.8851 2.15051 9.52174 2 9.14286 2H3.42857ZM13.4286 12C13.4286 11.6211 13.5791 11.2578 13.847 10.9898C14.1149 10.7219 14.4783 10.5714 14.8571 10.5714H20.5714C20.9503 10.5714 21.3137 10.7219 21.5816 10.9898C21.8495 11.2578 22 11.6211 22 12V20.5714C22 20.9503 21.8495 21.3137 21.5816 21.5816C21.3137 21.8495 20.9503 22 20.5714 22H14.8571C14.4783 22 14.1149 21.8495 13.847 21.5816C13.5791 21.3137 13.4286 20.9503 13.4286 20.5714V12Z" fill="white"/>
<path d="M2 17.7C2 17.3211 2.15051 16.9578 2.41842 16.6898C2.68633 16.4219 3.04969 16.2714 3.42857 16.2714H9.14286C9.52174 16.2714 9.8851 16.4219 10.153 16.6898C10.4209 16.9578 10.5714 17.3211 10.5714 17.7V20.5714C10.5714 20.9503 10.4209 21.3137 10.153 21.5816C9.8851 21.8495 9.52174 22 9.14286 22H3.42857C3.04969 22 2.68633 21.8495 2.41842 21.5816C2.15051 21.3137 2 20.9503 2 20.5714V17.7Z" fill="#929EAE"/>
<path d="M13.4286 3.42857C13.4286 3.04969 13.5791 2.68633 13.847 2.41842C14.1149 2.15051 14.4783 2 14.8571 2H20.5714C20.9503 2 21.3137 2.15051 21.5816 2.41842C21.8495 2.68633 22 3.04969 22 3.42857V6.3C22 6.67888 21.8495 7.04224 21.5816 7.31015C21.3137 7.57806 20.9503 7.72857 20.5714 7.72857H14.8571C14.4783 7.72857 14.1149 7.57806 13.847 7.31015C13.5791 7.04224 13.4286 6.67888 13.4286 6.3V3.42857Z" fill="#929EAE"/>
</svg>
