<svg width="24" height="24" viewBox="0 0 24 24" fill="none" xmlns="http://www.w3.org/2000/svg">
<path fill-rule="evenodd" clip-rule="evenodd" d="M10.3462 3.08805C10.3462 2.79948 10.2315 2.52272 10.0275 2.31867C9.82343 2.11462 9.54668 1.99999 9.2581 1.99999C8.96953 1.99999 8.69278 2.11462 8.48873 2.31867C8.28468 2.52272 8.17004 2.79948 8.17004 3.08805V6.51616C8.17004 6.80473 8.28468 7.08149 8.48873 7.28554C8.69278 7.48959 8.96953 7.60422 9.2581 7.60422C9.54668 7.60422 9.82343 7.48959 10.0275 7.28554C10.2315 7.08149 10.3462 6.80473 10.3462 6.51616V3.08805ZM15.83 3.08805C15.83 2.79948 15.7154 2.52272 15.5113 2.31867C15.3073 2.11462 15.0305 1.99999 14.7419 1.99999C14.4534 1.99999 14.1766 2.11462 13.9726 2.31867C13.7685 2.52272 13.6539 2.79948 13.6539 3.08805V6.51616C13.6539 6.80473 13.7685 7.08149 13.9726 7.28554C14.1766 7.48959 14.4534 7.60422 14.7419 7.60422C15.0305 7.60422 15.3073 7.48959 15.5113 7.28554C15.7154 7.08149 15.83 6.80473 15.83 6.51616V3.08805ZM2.00002 14.7419C2.00002 14.4533 2.11465 14.1766 2.3187 13.9725C2.52275 13.7685 2.7995 13.6538 3.08808 13.6538H6.51619C6.80476 13.6538 7.08152 13.7685 7.28557 13.9725C7.48962 14.1766 7.60425 14.4533 7.60425 14.7419C7.60425 15.0305 7.48962 15.3072 7.28557 15.5113C7.08152 15.7153 6.80476 15.83 6.51619 15.83H3.08808C2.7995 15.83 2.52275 15.7153 2.3187 15.5113C2.11465 15.3072 2.00002 15.0305 2.00002 14.7419ZM3.08808 8.17001C2.7995 8.17001 2.52275 8.28465 2.3187 8.4887C2.11465 8.69275 2.00002 8.9695 2.00002 9.25808C2.00002 9.54665 2.11465 9.8234 2.3187 10.0275C2.52275 10.2315 2.7995 10.3461 3.08808 10.3461H6.51619C6.80476 10.3461 7.08152 10.2315 7.28557 10.0275C7.48962 9.8234 7.60425 9.54665 7.60425 9.25808C7.60425 8.9695 7.48962 8.69275 7.28557 8.4887C7.08152 8.28465 6.80476 8.17001 6.51619 8.17001H3.08808ZM14.7419 16.3958C15.0305 16.3958 15.3073 16.5104 15.5113 16.7144C15.7154 16.9185 15.83 17.1952 15.83 17.4838V20.9119C15.83 21.2005 15.7154 21.4773 15.5113 21.6813C15.3073 21.8854 15.0305 22 14.7419 22C14.4534 22 14.1766 21.8854 13.9726 21.6813C13.7685 21.4773 13.6539 21.2005 13.6539 20.9119V17.4838C13.6539 17.1952 13.7685 16.9185 13.9726 16.7144C14.1766 16.5104 14.4534 16.3958 14.7419 16.3958ZM10.3462 17.4838C10.3462 17.1952 10.2315 16.9185 10.0275 16.7144C9.82343 16.5104 9.54668 16.3958 9.2581 16.3958C8.96953 16.3958 8.69278 16.5104 8.48873 16.7144C8.28468 16.9185 8.17004 17.1952 8.17004 17.4838V20.9119C8.17004 21.2005 8.28468 21.4773 8.48873 21.6813C8.69278 21.8854 8.96953 22 9.2581 22C9.54668 22 9.82343 21.8854 10.0275 21.6813C10.2315 21.4773 10.3462 21.2005 10.3462 20.9119V17.4838ZM16.3958 9.25808C16.3958 8.9695 16.5104 8.69275 16.7145 8.4887C16.9185 8.28465 17.1953 8.17001 17.4838 8.17001H20.912C21.2005 8.17001 21.4773 8.28465 21.6813 8.4887C21.8854 8.69275 22 8.9695 22 9.25808C22 9.54665 21.8854 9.8234 21.6813 10.0275C21.4773 10.2315 21.2005 10.3461 20.912 10.3461H17.4838C17.1953 10.3461 16.9185 10.2315 16.7145 10.0275C16.5104 9.8234 16.3958 9.54665 16.3958 9.25808ZM17.4838 13.6538C17.1953 13.6538 16.9185 13.7685 16.7145 13.9725C16.5104 14.1766 16.3958 14.4533 16.3958 14.7419C16.3958 15.0305 16.5104 15.3072 16.7145 15.5113C16.9185 15.7153 17.1953 15.83 17.4838 15.83H20.912C21.2005 15.83 21.4773 15.7153 21.6813 15.5113C21.8854 15.3072 22 15.0305 22 14.7419C22 14.4533 21.8854 14.1766 21.6813 13.9725C21.4773 13.7685 21.2005 13.6538 20.912 13.6538H17.4838Z" fill="#929EAE"/>
<path fill-rule="evenodd" clip-rule="evenodd" d="M7.64779 5.47162C7.07064 5.47162 6.51714 5.70089 6.10904 6.10899C5.70093 6.51709 5.47166 7.0706 5.47166 7.64774V16.3522C5.47166 16.9294 5.70093 17.4829 6.10904 17.891C6.51714 18.2991 7.07064 18.5283 7.64779 18.5283H16.3523C16.9294 18.5283 17.4829 18.2991 17.891 17.891C18.2991 17.4829 18.5284 16.9294 18.5284 16.3522V7.64774C18.5284 7.0706 18.2991 6.51709 17.891 6.10899C17.4829 5.70089 16.9294 5.47162 16.3523 5.47162H7.64779Z" fill="white"/>
<path fill-rule="evenodd" clip-rule="evenodd" d="M11.6867 14.9015C11.6867 14.401 12.0929 13.9948 12.5934 13.9948H15.4949C15.7353 13.9948 15.966 14.0903 16.136 14.2603C16.3061 14.4304 16.4016 14.661 16.4016 14.9015C16.4016 15.142 16.3061 15.3726 16.136 15.5426C15.966 15.7127 15.7353 15.8082 15.4949 15.8082H12.5934C12.3529 15.8082 12.1223 15.7127 11.9522 15.5426C11.7822 15.3726 11.6867 15.142 11.6867 14.9015Z" fill="#929EAE"/>
</svg>
