<svg width="24" height="24" viewBox="0 0 24 24" fill="none" xmlns="http://www.w3.org/2000/svg">
<path fill-rule="evenodd" clip-rule="evenodd" d="M10.1194 2.98571L9.45802 4.69286L7.18087 5.98429L5.36659 5.70714C5.06402 5.66585 4.75601 5.71552 4.48176 5.84985C4.20752 5.98417 3.97945 6.19707 3.82659 6.46143L3.2123 7.53857C3.05457 7.8068 2.98188 8.11654 3.00381 8.42693C3.02575 8.73732 3.14128 9.03377 3.33516 9.27714L4.48802 10.7071V13.2929L3.36659 14.7229C3.17271 14.9662 3.05718 15.2627 3.03524 15.5731C3.01331 15.8835 3.086 16.1932 3.24373 16.4614L3.85802 17.5386C4.01088 17.8029 4.23895 18.0158 4.51319 18.1502C4.78744 18.2845 5.09545 18.3342 5.39802 18.2929L7.2123 18.0157L9.45945 19.3071L10.1209 21.0157C10.2322 21.3045 10.4281 21.553 10.683 21.7287C10.9379 21.9043 11.2399 21.9988 11.5494 22H12.8423C13.1525 21.9993 13.4552 21.9048 13.7107 21.7289C13.9662 21.5529 14.1625 21.3038 14.2737 21.0143L14.9352 19.3071L17.1809 18.0157L18.9952 18.2929C19.2977 18.3342 19.6057 18.2845 19.88 18.1502C20.1542 18.0158 20.3823 17.8029 20.5352 17.5386L21.1494 16.4614C21.3072 16.1932 21.3799 15.8835 21.3579 15.5731C21.336 15.2627 21.2205 14.9662 21.0266 14.7229L19.8737 13.2929V10.7071L20.9966 9.27714C21.1905 9.03377 21.306 8.73732 21.3279 8.42693C21.3499 8.11654 21.2772 7.8068 21.1194 7.53857L20.5052 6.46143C20.3524 6.19693 20.1244 5.98393 19.8501 5.84959C19.5758 5.71524 19.2677 5.66565 18.9652 5.70714L17.1509 5.98429L14.9037 4.69286L14.2423 2.98429C14.1307 2.69535 13.9345 2.44681 13.6794 2.2712C13.4242 2.09558 13.122 2.00106 12.8123 2L11.5494 2C11.2395 2.00117 10.9372 2.0959 10.6821 2.27178C10.4269 2.44767 10.2308 2.69651 10.1194 2.98571ZM12.1809 15.2143C12.603 15.2143 13.021 15.1311 13.4109 14.9696C13.8009 14.8081 14.1552 14.5713 14.4537 14.2728C14.7522 13.9744 14.989 13.62 15.1505 13.2301C15.312 12.8401 15.3952 12.4221 15.3952 12C15.3952 11.5779 15.312 11.1599 15.1505 10.7699C14.989 10.38 14.7522 10.0256 14.4537 9.72716C14.1552 9.42868 13.8009 9.19192 13.4109 9.03039C13.021 8.86885 12.603 8.78571 12.1809 8.78571C11.3284 8.78571 10.5108 9.12436 9.90803 9.72716C9.30524 10.33 8.96659 11.1475 8.96659 12C8.96659 12.8525 9.30524 13.67 9.90803 14.2728C10.5108 14.8756 11.3284 15.2143 12.1809 15.2143Z" fill="white"/>
</svg>
