<svg width="24" height="24" viewBox="0 0 24 24" fill="none" xmlns="http://www.w3.org/2000/svg">
<path d="M9.14285 11.5714C10.2795 11.5714 11.3696 11.1199 12.1733 10.3162C12.977 9.51244 13.4286 8.42236 13.4286 7.28571C13.4286 6.14907 12.977 5.05898 12.1733 4.25526C11.3696 3.45153 10.2795 3 9.14285 3C8.0062 3 6.91612 3.45153 6.11239 4.25526C5.30866 5.05898 4.85713 6.14907 4.85713 7.28571C4.85713 8.42236 5.30866 9.51244 6.11239 10.3162C6.91612 11.1199 8.0062 11.5714 9.14285 11.5714Z" fill="white"/>
<path d="M2 20.1429C2 18.2485 2.75255 16.4316 4.09209 15.0921C5.43164 13.7525 7.24845 13 9.14286 13C11.0373 13 12.8541 13.7525 14.1936 15.0921C15.5332 16.4316 16.2857 18.2485 16.2857 20.1429C16.2857 20.3323 16.2105 20.514 16.0765 20.6479C15.9425 20.7819 15.7609 20.8571 15.5714 20.8571H2.71429C2.52485 20.8571 2.34316 20.7819 2.20921 20.6479C2.07525 20.514 2 20.3323 2 20.1429Z" fill="white"/>
<path fill-rule="evenodd" clip-rule="evenodd" d="M17.9686 20.8571H21.2857C21.4752 20.8571 21.6569 20.7819 21.7908 20.6479C21.9248 20.514 22 20.3323 22 20.1429C22 19.1758 21.8036 18.2187 21.4227 17.3298C21.0418 16.4409 20.4843 15.6385 19.7841 14.9714C19.0839 14.3044 18.2555 13.7864 17.3492 13.449C16.4428 13.1116 15.4774 12.9618 14.5114 13.0086C15.6179 13.8398 16.5156 14.9172 17.1335 16.1555C17.7514 17.3938 18.0726 18.759 18.0714 20.1429C18.0714 20.3914 18.0357 20.6314 17.9686 20.8571ZM13.6172 11.39C14.2573 11.5828 14.9336 11.6232 15.5921 11.508C16.2506 11.3927 16.873 11.125 17.4096 10.7263C17.9462 10.3275 18.382 9.80877 18.6823 9.21148C18.9826 8.6142 19.139 7.95495 19.139 7.28643C19.139 6.61791 18.9826 5.95866 18.6823 5.36137C18.382 4.76409 17.9462 4.24534 17.4096 3.84658C16.873 3.44782 16.2506 3.18012 15.5921 3.06488C14.9336 2.94963 14.2573 2.99003 13.6172 3.18286C14.6459 4.30135 15.2161 5.76604 15.2143 7.28571C15.2165 8.80588 14.6463 10.2711 13.6172 11.39Z" fill="#929EAE"/>
</svg>
