<svg width="24" height="24" viewBox="0 0 24 24" fill="none" xmlns="http://www.w3.org/2000/svg">
<g clip-path="url(#clip0_7_1118)">
<path d="M17.882 19.297C16.1232 20.4126 14.0827 21.0033 12 21C6.608 21 2.122 17.12 1.181 12C1.61103 9.67072 2.78263 7.5429 4.521 5.93401L1.392 2.80801L2.807 1.39301L22.606 21.193L21.191 22.607L17.881 19.297H17.882ZM5.935 7.35001C4.576 8.5856 3.62932 10.2088 3.223 12C3.53529 13.3665 4.16226 14.6411 5.054 15.7226C5.94574 16.804 7.07763 17.6624 8.35955 18.2293C9.64148 18.7962 11.038 19.0561 12.4381 18.9881C13.8381 18.9202 15.203 18.5264 16.424 17.838L14.396 15.81C13.5327 16.3538 12.5102 16.5881 11.4962 16.4744C10.4823 16.3608 9.53704 15.9059 8.81557 15.1844C8.0941 14.463 7.63923 13.5177 7.52556 12.5038C7.4119 11.4898 7.64618 10.4673 8.19 9.60401L5.935 7.35001ZM12.914 14.328L9.672 11.086C9.49406 11.5389 9.45219 12.034 9.55151 12.5104C9.65082 12.9867 9.88702 13.4238 10.2311 13.7679C10.5752 14.112 11.0123 14.3482 11.4887 14.4475C11.965 14.5468 12.4601 14.5049 12.913 14.327L12.914 14.328ZM20.807 16.592L19.376 15.162C20.0445 14.2093 20.5204 13.1352 20.777 12C20.5052 10.8097 19.9943 9.68715 19.2751 8.7005C18.556 7.71385 17.6438 6.88373 16.5939 6.26061C15.544 5.63749 14.3783 5.23437 13.1677 5.07577C11.9572 4.91717 10.727 5.00638 9.552 5.33801L7.974 3.76001C9.221 3.27001 10.58 3.00001 12 3.00001C17.392 3.00001 21.878 6.88001 22.819 12C22.5126 13.6657 21.8239 15.2376 20.807 16.592ZM11.723 7.50801C12.3595 7.46867 12.9971 7.56507 13.5935 7.79082C14.19 8.01657 14.7316 8.36652 15.1825 8.81746C15.6335 9.2684 15.9834 9.81003 16.2092 10.4065C16.4349 11.0029 16.5313 11.6405 16.492 12.277L11.722 7.50801H11.723Z" fill="#1B212D"/>
</g>
<defs>
<clipPath id="clip0_7_1118">
<rect width="24" height="24" fill="white"/>
</clipPath>
</defs>
</svg>
