<svg width="16" height="16" viewBox="0 0 16 16" fill="none" xmlns="http://www.w3.org/2000/svg">
<path d="M8 14.6666C4.31809 14.6666 1.33333 11.6818 1.33333 7.99998C1.33333 4.31808 4.31809 1.33331 8 1.33331C11.6819 1.33331 14.6667 4.31808 14.6667 7.99998C14.6667 11.6818 11.6819 14.6666 8 14.6666ZM8 13.3333C10.9455 13.3333 13.3333 10.9455 13.3333 7.99998C13.3333 5.05446 10.9455 2.66665 8 2.66665C5.05447 2.66665 2.66666 5.05446 2.66666 7.99998C2.66666 10.9455 5.05447 13.3333 8 13.3333ZM7.33333 4.66665H8.66666V5.99998H7.33333V4.66665ZM7.33333 7.33331H8.66666V11.3333H7.33333V7.33331Z" fill="#1B212D"/>
</svg>
