<svg width="32" height="32" viewBox="0 0 32 32" fill="none" xmlns="http://www.w3.org/2000/svg">
<g clip-path="url(#clip0_499_486)">
<path d="M16.3333 29.6667C8.96933 29.6667 3 23.6973 3 16.3333C3 8.96933 8.96933 3 16.3333 3C23.6973 3 29.6667 8.96933 29.6667 16.3333C29.6667 23.6973 23.6973 29.6667 16.3333 29.6667ZM16.3333 27C19.1623 27 21.8754 25.8762 23.8758 23.8758C25.8762 21.8754 27 19.1623 27 16.3333C27 13.5044 25.8762 10.7912 23.8758 8.79086C21.8754 6.79047 19.1623 5.66667 16.3333 5.66667C13.5044 5.66667 10.7912 6.79047 8.79086 8.79086C6.79047 10.7912 5.66667 13.5044 5.66667 16.3333C5.66667 19.1623 6.79047 21.8754 8.79086 23.8758C10.7912 25.8762 13.5044 27 16.3333 27ZM16.3333 14.448L20.104 10.676L21.9907 12.5627L18.2187 16.3333L21.9907 20.104L20.104 21.9907L16.3333 18.2187L12.5627 21.9907L10.676 20.104L14.448 16.3333L10.676 12.5627L12.5627 10.676L16.3333 14.448Z" fill="#3F4254"/>
</g>
<defs>
<clipPath id="clip0_499_486">
<rect width="32" height="32" fill="white"/>
</clipPath>
</defs>
</svg>
